<?xml version="1.0" encoding="UTF-8" standalone="no"?>
<svg width="80px" height="60px" viewBox="0 0 80 60" version="1.1" xmlns="http://www.w3.org/2000/svg" xmlns:xlink="http://www.w3.org/1999/xlink" xmlns:sketch="http://www.bohemiancoding.com/sketch/ns">
    <title>code</title>
    <desc>Created by Ryan Beck from the Noun Project
      - This icon is licensed as Creative Commons – Attribution (CC BY 3.0)
      http://thenounproject.com/term/code/20721/</desc>
    <defs></defs>
    <g id="Page-1" stroke="none" stroke-width="1" fill="none" fill-rule="evenodd" sketch:type="MSPage">
        <g id="noun_20721_cc" sketch:type="MSLayerGroup">
            <path d="M78,0 L2,0 C0.896,0 0,0.896 0,2 L0,47 C0,48.104 0.896,49 2,49 L78,49 C79.104,49 80,48.104 80,47 L80,2 C80,0.896 79.104,0 78,0 L78,0 Z" id="Shape" fill="#000000" sketch:type="MSShapeGroup"></path>
            <path d="M76,41 L4,41 L4,4 L76,4 L76,41 L76,41 Z" id="Path" fill="#FFFFFF" sketch:type="MSShapeGroup"></path>
            <rect id="Rectangle-path" fill="#000000" sketch:type="MSShapeGroup" x="31" y="47" width="18" height="12"></rect>
            <rect id="Rectangle-path" fill="#000000" sketch:type="MSShapeGroup" x="24" y="57" width="32" height="3"></rect>
            <g id="Group" transform="translate(17.000000, 12.000000)" fill="#000000" sketch:type="MSShapeGroup">
                <path d="M15.324,19.387 L0.583,12.84 L0.583,10.332 L15.324,2.955 L15.324,7.285 L6.284,11.411 L15.324,15.085 L15.324,19.387 L15.324,19.387 Z" id="Shape"></path>
                <path d="M29.569,0.359 L21.622,22.274 L16.577,22.274 L24.524,0.359 L29.569,0.359 L29.569,0.359 Z" id="Shape"></path>
                <path d="M30.677,15.085 L39.718,11.411 L30.677,7.285 L30.677,2.955 L45.418,10.332 L45.418,12.84 L30.677,19.386 L30.677,15.085 L30.677,15.085 Z" id="Shape"></path>
            </g>
        </g>
    </g>
</svg>
