<?xml version="1.0" encoding="UTF-8" standalone="no"?>
<svg width="251px" height="306px" viewBox="0 0 251 306" version="1.1" xmlns="http://www.w3.org/2000/svg" xmlns:xlink="http://www.w3.org/1999/xlink" xmlns:sketch="http://www.bohemiancoding.com/sketch/ns">
    <!-- Generator: Sketch 3.2.2 (9983) - http://www.bohemiancoding.com/sketch -->
    <title>logo_composer_transparent</title>
    <desc>Created with Sketch.</desc>
    <defs></defs>
    <g id="Page-1" stroke="none" stroke-width="1" fill="none" fill-rule="evenodd" sketch:type="MSPage">
        <path d="M67,178.567927 C67,142.038302 95.4591765,125.047696 100.697977,122.357665 C106.927747,118.959544 111.458456,117.260126 118.679553,111.596829 C122.077674,108.76518 125.050941,104.800586 126.042268,95.0310766 C131.13945,101.119585 137.227602,108.199064 141.616693,111.172331 C148.696529,115.844659 155.776007,117.685337 163.279984,122.357665 C167.431914,124.952376 191.080577,139.435682 195.009102,170.709693 C196.319718,163.943699 197.305188,158.616904 197.5,158 C197.9,156.6 197.4,154.4 195.9,151.5 L193.6,147.3 L195.8,143.6 C198.6,138.9 198.6,138.9 195.3,139.2 C192.7,139.5 192,138.6 185.3,126.5 L178,113.5 L186.6,110.8 C191.3,109.4 195.4,107.9 195.7,107.7 C196,107.4 195.5,104.6 194.6,101.5 C193.4,97.5 192.2,95.6 190.6,94.9 C189.3,94.3 187.8,92.8 187.2,91.5 C186.5,90 184.3,88.6 180.8,87.5 C175.4,85.7 166.3,80.4 162.3,76.7 C161,75.6 155,73 148.8,70.9 C137.2,67.1 135.9,66 138,62.1 C139.1,59.9 143.5,58.5 154.5,56.5 L161.5,55.3 L153.7,47.3 C149.5,42.9 143.5,37.6 140.5,35.4 C131.9,29.3 131.7,23.5 140.1,23.5 C143.7,23.6 145.9,24.6 152.2,28.8 C156.4,31.7 160.3,34 160.7,34 C161.1,33.9 156.9,29.5 151.3,24.2 C141.8,15.1 141,14.1 141,10.6 C141,7.8 141.5,6.7 142.8,6.3 L145.8,2.8 C146.9,-0.2 147.1,-0.3 151.9,0.3 C159.5,1.2 172.9,8.5 186.8,19.3 L193,24.2 L189.4,15.8 C184.7,4.9 184.6,4.6 185.9,2.1 C187.2,-0.2 189.7,-0.6 193.2,1.1 C197.3,2.9 209.9,24.7 213.9,36.7 C216.9,45.6 219.3,61.5 218.7,68.4 C218.2,73.4 218.7,75.8 221.5,83.4 C225.8,95.4 227.1,98 228.5,98 C229.2,98 234.1,96.6 239.5,95 C244.9,93.3 249.3,92 249.4,92 C249.4,92 249.1,98.1 248.5,105.6 L247.5,119.3 L244,120.9 C242.1,121.7 240.3,122.5 240.1,122.7 C239.9,122.8 241.7,125.2 244,127.9 C247.4,131.9 248,133.2 247.1,134.4 C246.3,135.3 246.3,136.5 247,138.4 C247.5,139.8 247.7,142.3 247.4,143.9 C247,145.6 247.3,149.1 248,151.8 C249.3,157.4 248.5,160.4 240,180.5 C236,190.1 232.4,204.2 229.5,221.6 C228.8,226 227.2,231.6 226,234 C223.9,238.1 221.6,249.5 222.6,251.1 C222.8,251.5 225.5,251.2 228.5,250.5 C231.5,249.8 233.9,249.5 233.9,249.9 C233.8,250.2 230.4,253.6 226.2,257.5 L218.6,264.5 L221.4,259.7 C222.9,257.1 223.9,255 223.7,255 C222.5,255 187.5,270.7 181.8,273.8 C175.3,277.4 165.92439,283.703404 156.10057,291.083019 C146.276751,298.462635 141.616348,305.199999 140,305.2 C138.383652,305.200001 124.7,299.1 124.7,299.1 L117.4,297.5 C89.5,291.3 74.5,289 62,289 C46.1,289 30.4,287.9 32.2,287 C32.9,286.6 39.7,285.7 47.3,285 C60,283.8 68,283.9 86.5,285.6 C92.8,286.2 93.4,286.1 92,284.7 C89.7,282.3 55.2,272.8 44.4,271.5 L38.5,270.8 L42.5,274.2 C44.6,276 47.3,278.3 48.5,279.3 C49.6,280.3 45.7,278.7 39.8,275.8 C33.9,272.9 29.1,270.1 29.1,269.6 C29,268.4 52,269.5 58.7,271 C61.6,271.6 64.8,272 65.7,271.8 C67.3,271.5 67.1,271.1 64.7,268.6 C62.2,266.1 62,265.4 62.9,263.3 C63.9,261.1 63.2,260.4 48.7,249.7 C40.4,243.5 31.6,237.1 29.3,235.5 C26.6,233.6 25,231.7 25,230.4 C25,227.7 22.5,225.6 17.8,224 L14,222.8 L13.9,208.7 C13.6,169.6 13.1,158.7 11.4,156.9 C10.1,155.5 9.9,153.9 10.5,149.1 L11.2,143.1 L6.6,142.5 C3.3,142 2,141.3 2,140.1 C2,139.2 2.5,132.5 3.2,125.2 C4.5,110.4 3.9,111.1 13,113.5 C16,114.3 18.5,114.8 18.5,114.7 C18.6,114.6 19.3,111.9 20.2,108.6 C21.8,102.8 21.8,102.7 18.9,96.3 C16.6,91.1 15.7,90 14.2,90.4 C12.9,90.8 12.1,90.2 11.3,88 C10.3,85.4 10.4,84.8 12,84 C13.7,83.1 13.6,82.7 11.3,75.8 C4.1,53.7 -0.4,35.4 0.6,31.4 C1.4,28.4 4,28.3 6.7,31.2 C7.8,32.5 10.9,37.4 13.6,42.2 C16.3,47.1 18.8,51 19.3,51 C19.7,51 21.7,48.4 23.8,45.2 C34.2,29.1 36.9,26.8 41.1,30.6 C42.8,32.1 43.5,32.1 51.2,29.7 C55.8,28.2 63.6,25.1 68.7,22.6 C76.3,18.9 78.1,18.4 79,19.5 C80.9,21.8 79.3,24.5 72,31.4 L65.1,37.9 L67.2,44.4 C68.4,48 69.6,51 69.9,51 C70.2,51 81.5,44.1 95,35.6 C113.7,23.9 119.8,20.5 120.9,21.4 C122.6,22.7 122.1,23.2 104.2,34.5 C90.6,43.2 88.4,45 91.4,45 C92.9,45 97,49.5 97,51.2 C97,51.6 93.7,55.5 89.7,59.8 C84,65.9 81.1,70.3 75.8,80.6 C68.5,94.7 68.1,95.2 61.1,99 C58.5,100.4 56.4,102.4 56.2,103.5 C56,104.6 55.1,106.2 54.3,107.1 C52.9,108.8 50,118 50,121.1 C50,122.4 52.2,123.3 59,125 C67.4,127.1 68,127.4 67.4,129.4 C67,130.5 65.7,135.5 64.5,140.5 C62.4,149.2 62.2,149.5 59.3,149.8 C56.3,150.1 56.3,150.2 57.1,154.3 C57.5,156.6 57.9,158.9 58,159.4 C58,159.592202 60.8319474,168.827666 67.0186811,180.125477 C67.0062535,179.608287 67,179.089087 67,178.567927 Z M178.3,283.6 C186.5,278.3 229.8,261 234.6,261 C235.5,261 233.6,262.8 230.3,264.9 C224.3,269 219.3,273.6 222.1,272.5 C222.9,272.3 226.3,271.6 229.7,271.2 C236.2,270.3 237.6,271.3 231.4,272.4 C217.4,275.1 180.4,287.8 166.7,294.7 L159.9,298.1 C159.9,298.1 158.410003,299.161519 154.5,300.877234 C150.589996,302.59295 144.739609,304.64694 144.739609,303.001871 C144.739609,301.356803 155.2,297 159.1,294.6 L166.2,290.1 C166.2,290.1 175.2,285.6 178.3,283.6 Z M169.422265,200.812923 C164.802236,200.425378 155.562177,185.95997 149.65886,185.701932 C142.215533,185.443569 126.045269,201.329324 113.340107,201.329324 C105.640058,201.329324 103.330205,200.167015 100.763306,198.488306 C96.9134435,195.775818 94.9883504,191.642983 95.1167115,185.960295 C95.2450726,175.886084 104.613492,166.457781 116.420126,166.328599 C131.435141,166.199743 141.83045,181.310734 149.402138,181.181553 C155.818899,181.052696 168.138977,168.395179 174.170656,168.395179 C180.587417,168.395179 182.383826,175.11132 182.383826,179.114973 C182.383826,183.118626 181.100538,190.351493 178.020518,194.871872 C174.940499,199.392251 173.015729,201.070961 169.422265,200.812923 Z M135.413688,198.779471 C136.825337,197.48798 139.135513,195.4214 141.317005,194.517129 C143.498821,193.613183 144.653747,193.742365 146.707201,193.742365 C148.760656,193.742365 150.942148,193.871221 152.482157,194.904674 C154.022167,195.937801 154.920371,198.262419 155.433816,199.554235 C155.94726,200.845725 155.433816,201.620815 154.406927,202.137216 C153.508723,202.653617 153.380362,202.395253 152.482157,200.716544 C151.583953,199.037508 150.813786,197.358473 146.321795,197.358473 C141.830126,197.358473 140.418478,198.908327 138.236986,200.716544 C136.055171,202.52476 135.285004,203.170343 134.515161,202.137216 C133.745318,201.104414 134.00204,200.070961 135.413688,198.779471 Z M157.87203,210.532392 C157.230548,211.178299 151.327231,215.311459 144.397025,215.957042 C137.466819,216.602624 128.098399,216.990169 122.451805,211.824207 C121.5536,210.920262 121.810322,209.628446 122.451805,209.11172 C123.093287,208.595319 123.606731,208.207774 124.376898,208.207774 C125.146741,208.207774 125.01838,208.207774 125.403463,208.466137 C127.970038,210.532717 131.820224,212.211752 140.033718,212.211752 C148.246888,212.211752 154.022167,209.886809 156.588742,207.949736 C157.743669,207.045465 158.257113,207.820554 158.385474,208.336955 C158.514159,208.853682 158.770558,209.628446 157.87203,210.532392 Z" id="Shape" fill="#0077C0" sketch:type="MSShapeGroup"></path>
    </g>
</svg>